<?xml version="1.0" encoding="UTF-8" standalone="no"?>
<!DOCTYPE svg PUBLIC "-//W3C//DTD SVG 1.1//EN"
 "http://www.w3.org/Graphics/SVG/1.1/DTD/svg11.dtd">
<!-- Generated by graphviz version 2.43.0 (0)
 -->
<!-- Title: sourcetree Pages: 1 -->
<svg width="828pt" height="332pt"
 viewBox="0.00 0.00 828.00 332.00" xmlns="http://www.w3.org/2000/svg" xmlns:xlink="http://www.w3.org/1999/xlink">
<g id="graph0" class="graph" transform="scale(1 1) rotate(0) translate(4 328)">
<title>sourcetree</title>
<polygon fill="white" stroke="transparent" points="-4,4 -4,-328 824,-328 824,4 -4,4"/>
<!-- MulleObjCExpatFoundation -->
<g id="node1" class="node">
<title>MulleObjCExpatFoundation</title>
<polygon fill="yellow" stroke="black" points="376.5,-324 161.5,-324 161.5,-288 376.5,-288 376.5,-324"/>
<text text-anchor="middle" x="269" y="-302.3" font-family="Times,serif" font-size="14.00">MulleObjCExpatFoundation</text>
</g>
<!-- craftinfo/expat -->
<g id="node2" class="node">
<title>craftinfo/expat</title>
<polygon fill="lightgrey" stroke="black" points="122,-252 0,-252 0,-216 122,-216 122,-252"/>
<text text-anchor="middle" x="61" y="-230.3" font-family="Times,serif" font-size="14.00">craftinfo/expat</text>
</g>
<!-- MulleObjCExpatFoundation&#45;&gt;craftinfo/expat -->
<g id="edge1" class="edge">
<title>MulleObjCExpatFoundation&#45;&gt;craftinfo/expat</title>
<path fill="none" stroke="black" d="M218.38,-287.97C189.19,-278.14 152.31,-265.73 121.58,-255.39"/>
<polygon fill="black" stroke="black" points="122.44,-251.98 111.84,-252.11 120.2,-258.62 122.44,-251.98"/>
</g>
<!-- expat -->
<g id="node3" class="node">
<title>expat</title>
<polygon fill="lightgrey" stroke="black" points="196,-252 140,-252 140,-216 196,-216 196,-252"/>
<text text-anchor="middle" x="168" y="-230.3" font-family="Times,serif" font-size="14.00">expat</text>
</g>
<!-- MulleObjCExpatFoundation&#45;&gt;expat -->
<g id="edge2" class="edge">
<title>MulleObjCExpatFoundation&#45;&gt;expat</title>
<path fill="none" stroke="black" d="M244.29,-287.88C231.33,-278.89 215.27,-267.76 201.23,-258.03"/>
<polygon fill="black" stroke="black" points="203.02,-255.01 192.8,-252.19 199.03,-260.76 203.02,-255.01"/>
</g>
<!-- MulleBase64 -->
<g id="node4" class="node">
<title>MulleBase64</title>
<polygon fill="lightgrey" stroke="black" points="324,-252 214,-252 214,-216 324,-216 324,-252"/>
<text text-anchor="middle" x="269" y="-230.3" font-family="Times,serif" font-size="14.00">MulleBase64</text>
</g>
<!-- MulleObjCExpatFoundation&#45;&gt;MulleBase64 -->
<g id="edge3" class="edge">
<title>MulleObjCExpatFoundation&#45;&gt;MulleBase64</title>
<path fill="none" stroke="black" d="M269,-287.7C269,-279.98 269,-270.71 269,-262.11"/>
<polygon fill="black" stroke="black" points="272.5,-262.1 269,-252.1 265.5,-262.1 272.5,-262.1"/>
</g>
<!-- mulle&#45;objc&#45;list -->
<g id="node5" class="node">
<title>mulle&#45;objc&#45;list</title>
<polygon fill="lightgrey" stroke="black" points="459.5,-252 342.5,-252 342.5,-216 459.5,-216 459.5,-252"/>
<text text-anchor="middle" x="401" y="-230.3" font-family="Times,serif" font-size="14.00">mulle&#45;objc&#45;list</text>
</g>
<!-- MulleObjCExpatFoundation&#45;&gt;mulle&#45;objc&#45;list -->
<g id="edge4" class="edge">
<title>MulleObjCExpatFoundation&#45;&gt;mulle&#45;objc&#45;list</title>
<path fill="none" stroke="black" d="M301.29,-287.88C318.87,-278.55 340.81,-266.92 359.63,-256.94"/>
<polygon fill="black" stroke="black" points="361.39,-259.97 368.59,-252.19 358.11,-253.78 361.39,-259.97"/>
</g>
<!-- MulleObjCPlistFoundation -->
<g id="node6" class="node">
<title>MulleObjCPlistFoundation</title>
<polygon fill="lightgrey" stroke="black" points="682.5,-252 477.5,-252 477.5,-216 682.5,-216 682.5,-252"/>
<text text-anchor="middle" x="580" y="-230.3" font-family="Times,serif" font-size="14.00">MulleObjCPlistFoundation</text>
</g>
<!-- MulleObjCExpatFoundation&#45;&gt;MulleObjCPlistFoundation -->
<g id="edge5" class="edge">
<title>MulleObjCExpatFoundation&#45;&gt;MulleObjCPlistFoundation</title>
<path fill="none" stroke="black" d="M344.68,-287.97C389.92,-277.78 447.52,-264.82 494.41,-254.26"/>
<polygon fill="black" stroke="black" points="495.26,-257.66 504.25,-252.05 493.72,-250.83 495.26,-257.66"/>
</g>
<!-- MulleObjCStandardFoundation -->
<g id="node7" class="node">
<title>MulleObjCStandardFoundation</title>
<polygon fill="lightgrey" stroke="black" points="699.5,-180 460.5,-180 460.5,-144 699.5,-144 699.5,-180"/>
<text text-anchor="middle" x="580" y="-158.3" font-family="Times,serif" font-size="14.00">MulleObjCStandardFoundation</text>
</g>
<!-- MulleObjCPlistFoundation&#45;&gt;MulleObjCStandardFoundation -->
<g id="edge6" class="edge">
<title>MulleObjCPlistFoundation&#45;&gt;MulleObjCStandardFoundation</title>
<path fill="none" stroke="black" d="M580,-215.7C580,-207.98 580,-198.71 580,-190.11"/>
<polygon fill="black" stroke="black" points="583.5,-190.1 580,-180.1 576.5,-190.1 583.5,-190.1"/>
</g>
<!-- MulleObjCContainerFoundation -->
<g id="node8" class="node">
<title>MulleObjCContainerFoundation</title>
<polygon fill="lightgrey" stroke="black" points="455.5,-108 212.5,-108 212.5,-72 455.5,-72 455.5,-108"/>
<text text-anchor="middle" x="334" y="-86.3" font-family="Times,serif" font-size="14.00">MulleObjCContainerFoundation</text>
</g>
<!-- MulleObjCStandardFoundation&#45;&gt;MulleObjCContainerFoundation -->
<g id="edge7" class="edge">
<title>MulleObjCStandardFoundation&#45;&gt;MulleObjCContainerFoundation</title>
<path fill="none" stroke="black" d="M520.14,-143.97C485.02,-133.97 440.48,-121.3 403.77,-110.85"/>
<polygon fill="black" stroke="black" points="404.71,-107.48 394.13,-108.11 402.79,-114.21 404.71,-107.48"/>
</g>
<!-- MulleObjCValueFoundation -->
<g id="node9" class="node">
<title>MulleObjCValueFoundation</title>
<polygon fill="lightgrey" stroke="black" points="686,-108 474,-108 474,-72 686,-72 686,-108"/>
<text text-anchor="middle" x="580" y="-86.3" font-family="Times,serif" font-size="14.00">MulleObjCValueFoundation</text>
</g>
<!-- MulleObjCStandardFoundation&#45;&gt;MulleObjCValueFoundation -->
<g id="edge8" class="edge">
<title>MulleObjCStandardFoundation&#45;&gt;MulleObjCValueFoundation</title>
<path fill="none" stroke="black" d="M580,-143.7C580,-135.98 580,-126.71 580,-118.11"/>
<polygon fill="black" stroke="black" points="583.5,-118.1 580,-108.1 576.5,-118.1 583.5,-118.1"/>
</g>
<!-- mulle&#45;unicode -->
<g id="node10" class="node">
<title>mulle&#45;unicode</title>
<polygon fill="lightgrey" stroke="black" points="820,-108 704,-108 704,-72 820,-72 820,-108"/>
<text text-anchor="middle" x="762" y="-86.3" font-family="Times,serif" font-size="14.00">mulle&#45;unicode</text>
</g>
<!-- MulleObjCStandardFoundation&#45;&gt;mulle&#45;unicode -->
<g id="edge9" class="edge">
<title>MulleObjCStandardFoundation&#45;&gt;mulle&#45;unicode</title>
<path fill="none" stroke="black" d="M624.52,-143.88C649.73,-134.18 681.45,-121.98 708.07,-111.74"/>
<polygon fill="black" stroke="black" points="709.55,-114.92 717.62,-108.07 707.03,-108.39 709.55,-114.92"/>
</g>
<!-- MulleObjC -->
<g id="node11" class="node">
<title>MulleObjC</title>
<polygon fill="lightgrey" stroke="black" points="626,-36 534,-36 534,0 626,0 626,-36"/>
<text text-anchor="middle" x="580" y="-14.3" font-family="Times,serif" font-size="14.00">MulleObjC</text>
</g>
<!-- MulleObjCValueFoundation&#45;&gt;MulleObjC -->
<g id="edge10" class="edge">
<title>MulleObjCValueFoundation&#45;&gt;MulleObjC</title>
<path fill="none" stroke="black" d="M580,-71.7C580,-63.98 580,-54.71 580,-46.11"/>
<polygon fill="black" stroke="black" points="583.5,-46.1 580,-36.1 576.5,-46.1 583.5,-46.1"/>
</g>
</g>
</svg>
