<?xml version="1.0" encoding="UTF-8" standalone="no"?>
<!DOCTYPE svg PUBLIC "-//W3C//DTD SVG 1.1//EN"
 "http://www.w3.org/Graphics/SVG/1.1/DTD/svg11.dtd">
<!-- Generated by graphviz version 2.43.0 (0)
 -->
<!-- Title: sourcetree Pages: 1 -->
<svg width="382pt" height="116pt"
 viewBox="0.00 0.00 382.00 116.00" xmlns="http://www.w3.org/2000/svg" xmlns:xlink="http://www.w3.org/1999/xlink">
<g id="graph0" class="graph" transform="scale(1 1) rotate(0) translate(4 112)">
<title>sourcetree</title>
<polygon fill="white" stroke="transparent" points="-4,4 -4,-112 378,-112 378,4 -4,4"/>
<!-- MulleObjCExpatFoundation -->
<g id="node1" class="node">
<title>MulleObjCExpatFoundation</title>
<polygon fill="yellow" stroke="black" points="236.5,-108 21.5,-108 21.5,-72 236.5,-72 236.5,-108"/>
<text text-anchor="middle" x="129" y="-86.3" font-family="Times,serif" font-size="14.00">MulleObjCExpatFoundation</text>
</g>
<!-- expat -->
<g id="node2" class="node">
<title>expat</title>
<g id="a_node2"><a xlink:href="https://unknown.com/" xlink:title="expat">
<polygon fill="lightgrey" stroke="black" points="56,-36 0,-36 0,0 56,0 56,-36"/>
<text text-anchor="middle" x="28" y="-14.3" font-family="Times,serif" font-size="14.00">expat</text>
</a>
</g>
</g>
<!-- MulleObjCExpatFoundation&#45;&gt;expat -->
<g id="edge1" class="edge">
<title>MulleObjCExpatFoundation&#45;&gt;expat</title>
<path fill="none" stroke="black" d="M104.29,-71.88C91.33,-62.89 75.27,-51.76 61.23,-42.03"/>
<polygon fill="black" stroke="black" points="63.02,-39.01 52.8,-36.19 59.03,-44.76 63.02,-39.01"/>
</g>
<!-- MulleBase64 -->
<g id="node3" class="node">
<title>MulleBase64</title>
<g id="a_node3"><a xlink:href="https://github.com/MulleWeb/MulleBase64" xlink:title="MulleBase64">
<polygon fill="lightgrey" stroke="black" points="184,-36 74,-36 74,0 184,0 184,-36"/>
<text text-anchor="middle" x="129" y="-14.3" font-family="Times,serif" font-size="14.00">MulleBase64</text>
</a>
</g>
</g>
<!-- MulleObjCExpatFoundation&#45;&gt;MulleBase64 -->
<g id="edge2" class="edge">
<title>MulleObjCExpatFoundation&#45;&gt;MulleBase64</title>
<path fill="none" stroke="black" d="M129,-71.7C129,-63.98 129,-54.71 129,-46.11"/>
<polygon fill="black" stroke="black" points="132.5,-46.1 129,-36.1 125.5,-46.1 132.5,-46.1"/>
</g>
<!-- MulleFoundationBase -->
<g id="node4" class="node">
<title>MulleFoundationBase</title>
<g id="a_node4"><a xlink:href="https://github.com/MulleFoundation/MulleFoundationBase" xlink:title="MulleFoundationBase">
<polygon fill="lightgrey" stroke="black" points="374,-36 202,-36 202,0 374,0 374,-36"/>
<text text-anchor="middle" x="288" y="-14.3" font-family="Times,serif" font-size="14.00">MulleFoundationBase</text>
</a>
</g>
</g>
<!-- MulleObjCExpatFoundation&#45;&gt;MulleFoundationBase -->
<g id="edge3" class="edge">
<title>MulleObjCExpatFoundation&#45;&gt;MulleFoundationBase</title>
<path fill="none" stroke="black" d="M167.9,-71.88C189.63,-62.31 216.9,-50.3 239.96,-40.15"/>
<polygon fill="black" stroke="black" points="241.49,-43.3 249.23,-36.07 238.67,-36.89 241.49,-43.3"/>
</g>
</g>
</svg>
