<?xml version="1.0" encoding="UTF-8" standalone="no"?>
<!DOCTYPE svg PUBLIC "-//W3C//DTD SVG 1.1//EN"
 "http://www.w3.org/Graphics/SVG/1.1/DTD/svg11.dtd">
<!-- Generated by graphviz version 2.43.0 (0)
 -->
<!-- Title: sourcetree Pages: 1 -->
<svg width="828pt" height="260pt"
 viewBox="0.00 0.00 828.00 260.00" xmlns="http://www.w3.org/2000/svg" xmlns:xlink="http://www.w3.org/1999/xlink">
<g id="graph0" class="graph" transform="scale(1 1) rotate(0) translate(4 256)">
<title>sourcetree</title>
<polygon fill="white" stroke="transparent" points="-4,4 -4,-256 824,-256 824,4 -4,4"/>
<!-- MulleObjCExpatFoundation -->
<g id="node1" class="node">
<title>MulleObjCExpatFoundation</title>
<polygon fill="yellow" stroke="black" points="376.5,-252 161.5,-252 161.5,-216 376.5,-216 376.5,-252"/>
<text text-anchor="middle" x="269" y="-230.3" font-family="Times,serif" font-size="14.00">MulleObjCExpatFoundation</text>
</g>
<!-- craftinfo/expat -->
<g id="node2" class="node">
<title>craftinfo/expat</title>
<polygon fill="lightgrey" stroke="black" points="122,-180 0,-180 0,-144 122,-144 122,-180"/>
<text text-anchor="middle" x="61" y="-158.3" font-family="Times,serif" font-size="14.00">craftinfo/expat</text>
</g>
<!-- MulleObjCExpatFoundation&#45;&gt;craftinfo/expat -->
<g id="edge1" class="edge">
<title>MulleObjCExpatFoundation&#45;&gt;craftinfo/expat</title>
<path fill="none" stroke="black" d="M218.38,-215.97C189.19,-206.14 152.31,-193.73 121.58,-183.39"/>
<polygon fill="black" stroke="black" points="122.44,-179.98 111.84,-180.11 120.2,-186.62 122.44,-179.98"/>
</g>
<!-- expat -->
<g id="node3" class="node">
<title>expat</title>
<polygon fill="lightgrey" stroke="black" points="196,-180 140,-180 140,-144 196,-144 196,-180"/>
<text text-anchor="middle" x="168" y="-158.3" font-family="Times,serif" font-size="14.00">expat</text>
</g>
<!-- MulleObjCExpatFoundation&#45;&gt;expat -->
<g id="edge2" class="edge">
<title>MulleObjCExpatFoundation&#45;&gt;expat</title>
<path fill="none" stroke="black" d="M244.29,-215.88C231.33,-206.89 215.27,-195.76 201.23,-186.03"/>
<polygon fill="black" stroke="black" points="203.02,-183.01 192.8,-180.19 199.03,-188.76 203.02,-183.01"/>
</g>
<!-- MulleBase64 -->
<g id="node4" class="node">
<title>MulleBase64</title>
<polygon fill="lightgrey" stroke="black" points="324,-180 214,-180 214,-144 324,-144 324,-180"/>
<text text-anchor="middle" x="269" y="-158.3" font-family="Times,serif" font-size="14.00">MulleBase64</text>
</g>
<!-- MulleObjCExpatFoundation&#45;&gt;MulleBase64 -->
<g id="edge3" class="edge">
<title>MulleObjCExpatFoundation&#45;&gt;MulleBase64</title>
<path fill="none" stroke="black" d="M269,-215.7C269,-207.98 269,-198.71 269,-190.11"/>
<polygon fill="black" stroke="black" points="272.5,-190.1 269,-180.1 265.5,-190.1 272.5,-190.1"/>
</g>
<!-- mulle&#45;objc&#45;list -->
<g id="node5" class="node">
<title>mulle&#45;objc&#45;list</title>
<polygon fill="lightgrey" stroke="black" points="459.5,-180 342.5,-180 342.5,-144 459.5,-144 459.5,-180"/>
<text text-anchor="middle" x="401" y="-158.3" font-family="Times,serif" font-size="14.00">mulle&#45;objc&#45;list</text>
</g>
<!-- MulleObjCExpatFoundation&#45;&gt;mulle&#45;objc&#45;list -->
<g id="edge4" class="edge">
<title>MulleObjCExpatFoundation&#45;&gt;mulle&#45;objc&#45;list</title>
<path fill="none" stroke="black" d="M301.29,-215.88C318.87,-206.55 340.81,-194.92 359.63,-184.94"/>
<polygon fill="black" stroke="black" points="361.39,-187.97 368.59,-180.19 358.11,-181.78 361.39,-187.97"/>
</g>
<!-- MulleObjCPlistFoundation -->
<g id="node6" class="node">
<title>MulleObjCPlistFoundation</title>
<polygon fill="lightgrey" stroke="black" points="682.5,-180 477.5,-180 477.5,-144 682.5,-144 682.5,-180"/>
<text text-anchor="middle" x="580" y="-158.3" font-family="Times,serif" font-size="14.00">MulleObjCPlistFoundation</text>
</g>
<!-- MulleObjCExpatFoundation&#45;&gt;MulleObjCPlistFoundation -->
<g id="edge5" class="edge">
<title>MulleObjCExpatFoundation&#45;&gt;MulleObjCPlistFoundation</title>
<path fill="none" stroke="black" d="M344.68,-215.97C389.92,-205.78 447.52,-192.82 494.41,-182.26"/>
<polygon fill="black" stroke="black" points="495.26,-185.66 504.25,-180.05 493.72,-178.83 495.26,-185.66"/>
</g>
<!-- MulleObjCStandardFoundation -->
<g id="node7" class="node">
<title>MulleObjCStandardFoundation</title>
<polygon fill="lightgrey" stroke="black" points="699.5,-108 460.5,-108 460.5,-72 699.5,-72 699.5,-108"/>
<text text-anchor="middle" x="580" y="-86.3" font-family="Times,serif" font-size="14.00">MulleObjCStandardFoundation</text>
</g>
<!-- MulleObjCPlistFoundation&#45;&gt;MulleObjCStandardFoundation -->
<g id="edge6" class="edge">
<title>MulleObjCPlistFoundation&#45;&gt;MulleObjCStandardFoundation</title>
<path fill="none" stroke="black" d="M580,-143.7C580,-135.98 580,-126.71 580,-118.11"/>
<polygon fill="black" stroke="black" points="583.5,-118.1 580,-108.1 576.5,-118.1 583.5,-118.1"/>
</g>
<!-- MulleObjCContainerFoundation -->
<g id="node8" class="node">
<title>MulleObjCContainerFoundation</title>
<polygon fill="lightgrey" stroke="black" points="455.5,-36 212.5,-36 212.5,0 455.5,0 455.5,-36"/>
<text text-anchor="middle" x="334" y="-14.3" font-family="Times,serif" font-size="14.00">MulleObjCContainerFoundation</text>
</g>
<!-- MulleObjCStandardFoundation&#45;&gt;MulleObjCContainerFoundation -->
<g id="edge7" class="edge">
<title>MulleObjCStandardFoundation&#45;&gt;MulleObjCContainerFoundation</title>
<path fill="none" stroke="black" d="M520.14,-71.97C485.02,-61.97 440.48,-49.3 403.77,-38.85"/>
<polygon fill="black" stroke="black" points="404.71,-35.48 394.13,-36.11 402.79,-42.21 404.71,-35.48"/>
</g>
<!-- MulleObjCValueFoundation -->
<g id="node9" class="node">
<title>MulleObjCValueFoundation</title>
<polygon fill="lightgrey" stroke="black" points="686,-36 474,-36 474,0 686,0 686,-36"/>
<text text-anchor="middle" x="580" y="-14.3" font-family="Times,serif" font-size="14.00">MulleObjCValueFoundation</text>
</g>
<!-- MulleObjCStandardFoundation&#45;&gt;MulleObjCValueFoundation -->
<g id="edge8" class="edge">
<title>MulleObjCStandardFoundation&#45;&gt;MulleObjCValueFoundation</title>
<path fill="none" stroke="black" d="M580,-71.7C580,-63.98 580,-54.71 580,-46.11"/>
<polygon fill="black" stroke="black" points="583.5,-46.1 580,-36.1 576.5,-46.1 583.5,-46.1"/>
</g>
<!-- mulle&#45;unicode -->
<g id="node10" class="node">
<title>mulle&#45;unicode</title>
<polygon fill="lightgrey" stroke="black" points="820,-36 704,-36 704,0 820,0 820,-36"/>
<text text-anchor="middle" x="762" y="-14.3" font-family="Times,serif" font-size="14.00">mulle&#45;unicode</text>
</g>
<!-- MulleObjCStandardFoundation&#45;&gt;mulle&#45;unicode -->
<g id="edge9" class="edge">
<title>MulleObjCStandardFoundation&#45;&gt;mulle&#45;unicode</title>
<path fill="none" stroke="black" d="M624.52,-71.88C649.73,-62.18 681.45,-49.98 708.07,-39.74"/>
<polygon fill="black" stroke="black" points="709.55,-42.92 717.62,-36.07 707.03,-36.39 709.55,-42.92"/>
</g>
</g>
</svg>
